PathFileType	4	(X/Y/Z)	E:\Marcel_BSc\Ayumi_22_01_2025\22-01-2025\conv_dl_3.trc
DataRate	CameraRate	NumFrames	NumMarkers	Units	OrigDataRate	OrigDataStartFrame	OrigNumFrames
200.0	200.0	4	47	mm	200.0	1441	2304	
Frame#	Time	FHD			LBHD			RBHD			RBAR			LBAR			RSACR			LSACR			USACR			C7			CLAV			T10			RSHO			LSHO			LTHI1			LTHI3			LTHI2			LTIB1			LTIB2			LTIB3			LMMAL			LLMAL			LHEE			LMT1			LMT5			LMT3			RTHI1			RTHI2			RTHI3			RTIB1			RTIB3			RTIB2			RLMAL			RMMAL			RHEE			RMT5			RMT1			RMT3			LDUPA			LMUPA			LUUPA			LRAD			RUL			RRAD			RUFIN			RMUPA			RDUPA			RUUPA			
		X1	Y1	Z1	X2	Y2	Z2	X3	Y3	Z3	X4	Y4	Z4	X5	Y5	Z5	X6	Y6	Z6	X7	Y7	Z7	X8	Y8	Z8	X9	Y9	Z9	X10	Y10	Z10	X11	Y11	Z11	X12	Y12	Z12	X13	Y13	Z13	X14	Y14	Z14	X15	Y15	Z15	X16	Y16	Z16	X17	Y17	Z17	X18	Y18	Z18	X19	Y19	Z19	X20	Y20	Z20	X21	Y21	Z21	X22	Y22	Z22	X23	Y23	Z23	X24	Y24	Z24	X25	Y25	Z25	X26	Y26	Z26	X27	Y27	Z27	X28	Y28	Z28	X29	Y29	Z29	X30	Y30	Z30	X31	Y31	Z31	X32	Y32	Z32	X33	Y33	Z33	X34	Y34	Z34	X35	Y35	Z35	X36	Y36	Z36	X37	Y37	Z37	X38	Y38	Z38	X39	Y39	Z39	X40	Y40	Z40	X41	Y41	Z41	X42	Y42	Z42	X43	Y43	Z43	X44	Y44	Z44	X45	Y45	Z45	X46	Y46	Z46	X47	Y47	Z47	
1441	7.195	-44.656013	1458.4509	-635.82379	-19.873537	1455.1981	-576.37476	3.9320447	1456.4884	-706.9505	233.75143	722.77405	-1754.9338	153.62453	630.87604	463.82474	414.29849	958.59802	-697.16724	414.58453	958.89587	-624.11255	406.93408	968.25873	-660.47168	226.89191	1366.1609	-634.87634	116.24387	1250.7604	-643.88452	350.28345	1119.3639	-653.55988	121.87602	1279.9913	-803.37366	148.92459	1267.2072	-472.25662	288.99362	602.08258	-449.48865	283.76733	536.42181	-461.6564	239.73537	556.74536	-446.80408	236.36008	241.4212	-435.14594	287.56079	240.75705	-439.69073	262.62112	180.42508	-441.40436	258.01846	75.124527	-523.68872	279.84476	72.973068	-449.14871	318.51459	36.656395	-494.40457	122.64866	44.033432	-477.5657	151.41393	26.596432	-401.92752	125.16955	41.706665	-443.10413	292.52179	595.10187	-849.70703	242.54922	552.66901	-849.62323	287.62006	531.93335	-834.39484	241.71359	274.31592	-847.13568	267.49585	214.53305	-835.5025	291.79684	275.63544	-840.99518	289.62476	73.712921	-809.61224	251.06274	80.591965	-741.09528	329.16409	31.385489	-760.3573	150.13701	36.165272	-842.53662	129.01883	41.860931	-791.65228	137.16743	39.044216	-821.05829	253.26704	1064.4453	-414.74194	203.33968	1066.8267	-419.55789	205.89532	1128.6172	-421.60617	214.66974	742.00238	-373.15448	159.03377	767.21625	-951.21509	159.9097	758.487	-888.2287	158.2941	682.26227	-892.68604	170.7641	1169.3418	-882.08954	170.8923	1109.4248	-898.97656	219.77454	1170.6265	-887.47858
1442	7.2	-47.311916	1454.4111	-635.30591	-22.367891	1451.4683	-575.86884	1.1701936	1452.9038	-706.45929	234.0948	720.6449	-1754.8455	154.42198	629.00769	463.87781	415.16321	958.25916	-697.18579	415.51187	958.46021	-624.13678	407.88684	967.81799	-660.47589	225.12788	1364.6539	-634.72864	115.30441	1248.339	-643.7478	350.23563	1118.7505	-653.50317	120.4705	1277.6637	-802.86188	148.0446	1265.1472	-471.98065	289.8316	601.58221	-449.11987	284.13327	536.00171	-461.36676	240.23503	556.55792	-446.37549	236.24289	241.33078	-434.88861	287.47882	240.66948	-439.4407	261.37268	180.25951	-441.38599	258.01797	75.164452	-523.62494	279.87463	72.917145	-449.04581	318.53464	36.641693	-494.37247	122.66037	44.005852	-477.5679	151.40782	26.583906	-401.91534	125.15087	41.803188	-443.02686	292.68701	594.75568	-849.55176	242.83186	552.35822	-849.77271	287.68991	531.51508	-834.35992	241.45695	274.16022	-847.14929	267.31287	214.39032	-835.57782	291.52298	275.49805	-841.07526	289.56241	73.656036	-809.64569	251.08015	80.567841	-741.06335	328.81104	31.449381	-760.48627	150.13684	36.159561	-842.51727	129.0257	41.870411	-791.61707	137.17813	39.053703	-821.03632	253.41841	1062.8173	-414.63943	203.42067	1065.0105	-419.38794	206.11601	1126.7288	-420.9411	215.16487	740.14563	-373.11792	159.35379	765.15448	-951.09271	160.03392	756.3501	-888.71631	158.82625	680.09711	-892.64771	169.75218	1167.2803	-881.70996	170.17603	1107.3126	-898.69	218.76276	1168.7996	-887.24829
1443	7.205	-49.905628	1450.3658	-634.75433	-24.898178	1447.7428	-575.40668	-1.7020571	1449.5742	-705.73883	234.47772	718.38885	-1754.6737	155.22882	627.19208	463.98923	416.15042	957.72186	-697.19067	416.28717	958.22388	-624.02655	408.72147	967.4375	-660.46619	223.33963	1363.1705	-634.55347	114.32007	1246.1675	-643.35815	350.12527	1118.1298	-653.45282	119.1626	1275.1583	-802.48962	147.22641	1262.9877	-471.82913	290.46634	601.15247	-448.83398	284.47723	535.70239	-461.14893	240.66171	556.33527	-445.99527	237.01227	240.54408	-434.23114	287.3717	240.60014	-439.20163	261.09543	180.44031	-440.78641	258.00647	75.182182	-523.58148	279.8457	72.881088	-448.95895	318.5387	36.634556	-494.336	122.67648	44.027447	-477.55142	151.41188	26.589964	-401.91574	125.13089	41.871849	-442.97659	293.47781	594.13275	-849.61096	242.96805	552.18585	-849.83606	287.77808	531.13184	-834.33063	241.23148	274.00827	-847.21899	267.13394	214.25003	-835.65247	291.31024	275.34671	-841.20801	289.48663	73.645813	-809.64655	251.06195	80.544632	-741.03503	328.80734	31.479702	-760.45673	150.13213	36.190063	-842.50281	129.03311	41.842377	-791.59985	137.17892	39.05468	-821.02362	253.57597	1061.2325	-414.55478	203.52672	1063.1771	-419.25504	205.97298	1124.8878	-420.82693	215.7599	738.30627	-373.00839	159.93314	763.38776	-950.91193	160.38911	754.24847	-888.60382	159.41853	678.09583	-892.5036	168.8143	1165.1327	-881.39075	169.45879	1105.2299	-898.38214	217.68579	1167.0067	-887.00031
1444	7.21	-52.483894	1446.2916	-634.25299	-27.275646	1443.9565	-574.86682	-4.3216128	1445.8403	-704.79456	234.77118	716.06232	-1754.6803	156.06755	625.38861	464.07037	417.06152	957.30927	-697.16827	417.43292	957.69556	-624.09698	409.67822	967.02167	-660.42926	221.60033	1361.6499	-634.37714	113.8614	1243.3469	-643.46863	350.13208	1117.4586	-653.38055	117.77752	1272.8473	-802.0047	146.3168	1260.7758	-471.61719	290.92316	600.80658	-448.55844	284.7803	535.37427	-460.97345	241.18715	556.04913	-445.73145	236.8459	240.461	-433.9653	287.22354	240.54755	-438.97961	261.01715	180.26695	-440.64761	258.00116	75.21064	-523.54608	279.84082	72.812851	-448.87604	318.55441	36.589458	-494.30655	122.68602	44.033222	-477.52643	151.40363	26.577791	-401.9155	125.10403	41.921352	-442.96982	294.27676	593.53192	-849.71918	243.19359	551.95734	-849.96918	287.93707	530.77368	-834.37958	240.92947	274.07822	-847.27704	266.94324	214.08601	-835.71753	291.07632	275.22195	-841.35107	289.41373	73.621651	-809.67786	251.0258	80.500626	-741.02637	328.8186	31.405218	-760.50586	150.13538	36.18108	-842.48663	129.03403	41.841389	-791.58533	137.16124	39.067928	-821.01935	253.7832	1059.6487	-414.44592	203.68047	1061.3862	-419.04666	205.81271	1123.1029	-420.70483	216.26204	736.4411	-372.91763	160.28369	761.2876	-950.76398	160.94176	752.15619	-887.89172	159.97588	676.11908	-892.27466	167.78511	1163.0663	-880.97205	168.68079	1103.188	-898.07465	216.67639	1165.127	-886.784
